<svg width="19" height="19" viewBox="0 0 19 19" fill="none" xmlns="http://www.w3.org/2000/svg">
<path d="M1.98516 1.97294C0.660329 3.34287 -0.0547827 5.19381 0.0032788 7.10268C0.119961 10.2181 1.45119 13.1626 3.70984 15.3011C5.86053 17.5623 8.80658 18.8889 11.9183 18.9973C13.8113 19.0498 15.6466 18.34 17.0157 17.026C18.3402 15.6559 19.055 13.805 18.9967 11.8962C18.8799 8.78153 17.5494 5.83758 15.292 3.69873C11.1604 -0.450866 5.19284 -1.22766 1.98516 1.97294ZM4.99492 14.004C3.09183 12.1992 1.95691 9.72553 1.82738 7.09994C1.81938 6.37922 1.94112 5.66298 2.18672 4.98575C2.98322 5.45969 3.87627 5.74625 4.79883 5.82391C6.84719 5.93137 8.48518 7.57294 8.5966 9.63C8.8243 12.4933 11.0908 14.7654 13.9421 14.9888C14.6148 15.034 15.2684 15.2329 15.8529 15.5704C15.8073 15.6199 15.7735 15.6804 15.7261 15.728C13.2325 18.2159 8.41966 17.4419 4.99857 14.004H4.99492ZM17.1671 11.8972C17.1754 12.6178 17.054 13.3341 16.8087 14.0114C16.012 13.5371 15.1186 13.2505 14.1957 13.1732C12.149 13.0645 10.5128 11.4243 10.4006 9.36893C10.173 6.50595 7.90696 4.23392 5.05603 4.01018C4.38354 3.96466 3.7303 3.76539 3.1462 3.42759C3.1918 3.37812 3.22463 3.31858 3.27206 3.27095C4.2994 2.29062 5.67541 1.76527 7.09172 1.81263C9.71857 1.93378 12.1959 3.07473 14.0014 4.99491C15.9046 6.79945 17.0401 9.27266 17.1708 11.8981L17.1671 11.8972Z" fill="#FF9800"/>
</svg>
