<svg width="22" height="19" viewBox="0 0 22 19" fill="none" xmlns="http://www.w3.org/2000/svg">
<path d="M13.3101 14.38L12.0001 15.64V10C12.0001 9.73478 11.8947 9.48043 11.7072 9.29289C11.5196 9.10536 11.2653 9 11.0001 9C10.7348 9 10.4805 9.10536 10.293 9.29289C10.1054 9.48043 10.0001 9.73478 10.0001 10V15.59L8.71006 14.29C8.61682 14.1968 8.50614 14.1228 8.38431 14.0723C8.26249 14.0219 8.13192 13.9959 8.00006 13.9959C7.8682 13.9959 7.73764 14.0219 7.61581 14.0723C7.49399 14.1228 7.3833 14.1968 7.29006 14.29C7.19682 14.3832 7.12286 14.4939 7.0724 14.6158C7.02194 14.7376 6.99597 14.8681 6.99597 15C6.99597 15.1319 7.02194 15.2624 7.0724 15.3842C7.12286 15.5061 7.19682 15.6168 7.29006 15.71L10.2901 18.71C10.3835 18.8027 10.4943 18.876 10.6162 18.9258C10.738 18.9755 10.8685 19.0008 11.0001 19C11.2575 18.999 11.5047 18.8987 11.6901 18.72L14.6901 15.82C14.7962 15.7324 14.8831 15.6239 14.9453 15.5013C15.0076 15.3786 15.0439 15.2444 15.0519 15.107C15.0599 14.9697 15.0395 14.8322 14.992 14.7031C14.9444 14.574 14.8708 14.4561 14.7756 14.3568C14.6804 14.2575 14.5658 14.1788 14.4388 14.1259C14.3118 14.0729 14.1753 14.0466 14.0378 14.0488C13.9002 14.051 13.7646 14.0815 13.6394 14.1385C13.5142 14.1955 13.4021 14.2777 13.3101 14.38Z" fill="#FF9800"/>
<path d="M16.67 4.99998C16.262 3.82103 15.4966 2.7986 14.4804 2.07494C13.4641 1.35129 12.2476 0.962402 11 0.962402C9.75245 0.962402 8.53592 1.35129 7.51968 2.07494C6.50345 2.7986 5.73806 3.82103 5.33002 4.99998C4.43157 5.12032 3.58273 5.48263 2.87432 6.04817C2.1659 6.61371 1.62455 7.3612 1.30818 8.21067C0.991814 9.06014 0.912327 9.97964 1.07822 10.8708C1.24412 11.762 1.64916 12.5913 2.25002 13.27C2.3226 13.3978 2.42247 13.5081 2.54253 13.5929C2.66258 13.6778 2.79987 13.7351 2.94461 13.7608C3.08934 13.7866 3.23798 13.7801 3.37992 13.7418C3.52186 13.7035 3.65362 13.6345 3.76582 13.5395C3.87801 13.4445 3.96788 13.3259 4.02903 13.1922C4.09018 13.0585 4.1211 12.913 4.11959 12.766C4.11808 12.619 4.08418 12.4742 4.02031 12.3417C3.95643 12.2093 3.86414 12.0927 3.75002 12C3.36313 11.5674 3.11 11.032 3.02131 10.4585C2.93261 9.88497 3.01215 9.29806 3.25029 8.76885C3.48843 8.23965 3.87495 7.79087 4.36301 7.47691C4.85106 7.16295 5.4197 6.99728 6.00002 6.99998H6.10002C6.33396 7.0047 6.56216 6.92723 6.74488 6.78105C6.92759 6.63488 7.05327 6.42926 7.10002 6.19998C7.28363 5.29575 7.7742 4.4828 8.48861 3.89888C9.20302 3.31496 10.0973 2.99597 11.02 2.99597C11.9427 2.99597 12.837 3.31496 13.5514 3.89888C14.2658 4.4828 14.7564 5.29575 14.94 6.19998C14.9868 6.42926 15.1124 6.63488 15.2952 6.78105C15.4779 6.92723 15.7061 7.0047 15.94 6.99998H16C16.5803 6.99728 17.149 7.16295 17.637 7.47691C18.1251 7.79087 18.5116 8.23965 18.7497 8.76885C18.9879 9.29806 19.0674 9.88497 18.9787 10.4585C18.89 11.032 18.6369 11.5674 18.25 12C18.1619 12.0988 18.0943 12.214 18.0511 12.3392C18.0079 12.4643 17.99 12.5967 17.9984 12.7288C18.0067 12.8609 18.0413 12.99 18.0999 13.1086C18.1585 13.2273 18.2402 13.3331 18.34 13.42C18.5223 13.5808 18.7569 13.6696 19 13.67C19.142 13.6698 19.2823 13.6394 19.4116 13.5808C19.541 13.5221 19.6563 13.4366 19.75 13.33C20.3675 12.6524 20.7869 11.8181 20.9622 10.9183C21.1376 10.0185 21.0622 9.0878 20.7443 8.22795C20.4263 7.3681 19.8781 6.61221 19.1596 6.04291C18.441 5.47362 17.5798 5.11282 16.67 4.99998Z" fill="#FF9800"/>
</svg>
