<svg width="17" height="20" viewBox="0 0 17 20" fill="none" xmlns="http://www.w3.org/2000/svg">
<path d="M8.9857 10C7.88701 10 6.98808 9.1 6.98808 8C6.98808 6.9 7.88701 6 8.9857 6C10.0844 6 10.9833 6.9 10.9833 8C10.9833 9.1 10.0844 10 8.9857 10ZM14.9785 8.2C14.9785 4.57 12.3317 2 8.9857 2C5.63969 2 2.99285 4.57 2.99285 8.2C2.99285 10.54 4.94053 13.64 8.9857 17.34C13.0309 13.64 14.9785 10.54 14.9785 8.2ZM8.9857 0C13.1807 0 16.9762 3.22 16.9762 8.2C16.9762 11.52 14.3093 15.45 8.9857 20C3.66205 15.45 0.995239 11.52 0.995239 8.2C0.995239 3.22 4.79071 0 8.9857 0Z" fill="#8BC34A"/>
</svg>
