<svg width="24" height="24" viewBox="0 0 24 24" fill="none" xmlns="http://www.w3.org/2000/svg">
<path d="M11.9856 12C10.8869 12 9.98796 11.1 9.98796 10C9.98796 8.9 10.8869 8 11.9856 8C13.0843 8 13.9832 8.9 13.9832 10C13.9832 11.1 13.0843 12 11.9856 12ZM17.9784 10.2C17.9784 6.57 15.3316 4 11.9856 4C8.63957 4 5.99273 6.57 5.99273 10.2C5.99273 12.54 7.94041 15.64 11.9856 19.34C16.0307 15.64 17.9784 12.54 17.9784 10.2ZM11.9856 2C16.1806 2 19.976 5.22 19.976 10.2C19.976 13.52 17.3092 17.45 11.9856 22C6.66193 17.45 3.99512 13.52 3.99512 10.2C3.99512 5.22 7.79058 2 11.9856 2Z" fill="#FF9800"/>
</svg>
