<svg width="24" height="24" viewBox="0 0 24 24" fill="none" xmlns="http://www.w3.org/2000/svg">
<path d="M10.8408 24C8.68571 24 6.79184 23.5139 5.15918 22.5416C3.52653 21.5905 2.25306 20.2378 1.33878 18.4835C0.446258 16.7081 0 14.6262 0 12.2378C0 9.65918 0.522449 7.46103 1.56735 5.64333C2.63401 3.82563 4.09252 2.43065 5.94286 1.45839C7.7932 0.486129 9.90476 0 12.2776 0C14.6068 0 16.6531 0.464993 18.4163 1.39498C20.1796 2.32497 21.551 3.6354 22.5306 5.32629C23.5102 6.99604 24 8.97226 24 11.255C24 13.5376 23.4993 15.3131 22.498 16.5812C21.4966 17.8494 20.1252 18.4835 18.3837 18.4835C17.4041 18.4835 16.6095 18.2827 16 17.8811C15.3905 17.4584 14.9878 16.8137 14.7918 15.9472C14.2041 16.6869 13.4966 17.2893 12.6694 17.7543C11.8639 18.2193 11.0259 18.4518 10.1551 18.4518C9.15374 18.4518 8.30476 18.1347 7.60816 17.5007C6.93333 16.8666 6.59592 15.9472 6.59592 14.7424C6.59592 13.6011 6.96599 12.7133 7.70612 12.0793C8.44626 11.424 9.67619 11.0964 11.3959 11.0964H14.6286V9.2576C14.6286 8.41215 14.3456 7.80977 13.7796 7.45046C13.2136 7.09115 12.5061 6.91149 11.6571 6.91149C11.0694 6.91149 10.4272 6.99604 9.73061 7.16512C9.05578 7.31308 8.40272 7.52444 7.77143 7.79921L7.34694 6.43593C8.19592 6.07662 9.03401 5.80185 9.86122 5.61162C10.6884 5.4214 11.4721 5.32629 12.2122 5.32629C13.5401 5.32629 14.6177 5.6539 15.4449 6.30911C16.2939 6.96433 16.7184 8 16.7184 9.41612V14.9643C16.7184 16.3382 17.3497 17.0251 18.6122 17.0251C19.7225 17.0251 20.5388 16.5178 21.0612 15.5033C21.5837 14.4888 21.8449 13.21 21.8449 11.6671C21.8449 9.61691 21.4531 7.85205 20.6694 6.37252C19.9075 4.87186 18.8082 3.71995 17.3714 2.91677C15.9347 2.09247 14.2041 1.68032 12.1796 1.68032C10.1333 1.68032 8.35918 2.10304 6.85714 2.94848C5.3551 3.77279 4.19048 4.96697 3.36327 6.53104C2.55782 8.09511 2.1551 9.98679 2.1551 12.2061C2.1551 14.2563 2.51429 16.0423 3.23265 17.5641C3.95102 19.0647 4.97415 20.2272 6.30204 21.0515C7.6517 21.8758 9.24082 22.288 11.0694 22.288C11.8531 22.288 12.6694 22.2034 13.5184 22.0343C14.3891 21.8864 15.249 21.6539 16.098 21.3369L16.6857 22.8269C14.7483 23.609 12.8 24 10.8408 24ZM10.9061 16.8983C11.5592 16.8983 12.2122 16.7081 12.8653 16.3276C13.5184 15.926 14.1061 15.3976 14.6286 14.7424V12.2695H11.8857C10.7537 12.2695 9.9483 12.4703 9.46939 12.8719C9.01225 13.2734 8.78367 13.8441 8.78367 14.5839C8.78367 15.3236 8.97959 15.8943 9.37143 16.2959C9.76327 16.6975 10.2748 16.8983 10.9061 16.8983Z" fill="#FF9800"/>
</svg>
