<svg width="31" height="31" viewBox="0 0 31 31" fill="none" xmlns="http://www.w3.org/2000/svg">
<path d="M5.30298 8.49634C5.30298 8.16482 5.43467 7.84688 5.6691 7.61245C5.90352 7.37803 6.22146 7.24634 6.55298 7.24634H24.053C24.3845 7.24634 24.7024 7.37803 24.9369 7.61245C25.1713 7.84688 25.303 8.16482 25.303 8.49634C25.303 8.82786 25.1713 9.1458 24.9369 9.38022C24.7024 9.61464 24.3845 9.74634 24.053 9.74634H6.55298C6.22146 9.74634 5.90352 9.61464 5.6691 9.38022C5.43467 9.1458 5.30298 8.82786 5.30298 8.49634Z" fill="#8BC34A"/>
<path d="M5.30298 23.4963C5.30298 23.1648 5.43467 22.8469 5.6691 22.6125C5.90352 22.378 6.22146 22.2463 6.55298 22.2463H24.053C24.3845 22.2463 24.7024 22.378 24.9369 22.6125C25.1713 22.8469 25.303 23.1648 25.303 23.4963C25.303 23.8279 25.1713 24.1458 24.9369 24.3802C24.7024 24.6146 24.3845 24.7463 24.053 24.7463H6.55298C6.22146 24.7463 5.90352 24.6146 5.6691 24.3802C5.43467 24.1458 5.30298 23.8279 5.30298 23.4963Z" fill="#8BC34A"/>
<path d="M6.55298 14.7463C6.22146 14.7463 5.90352 14.878 5.6691 15.1125C5.43467 15.3469 5.30298 15.6648 5.30298 15.9963C5.30298 16.3279 5.43467 16.6458 5.6691 16.8802C5.90352 17.1146 6.22146 17.2463 6.55298 17.2463H16.553C16.8845 17.2463 17.2024 17.1146 17.4369 16.8802C17.6713 16.6458 17.803 16.3279 17.803 15.9963C17.803 15.6648 17.6713 15.3469 17.4369 15.1125C17.2024 14.878 16.8845 14.7463 16.553 14.7463H6.55298Z" fill="#8BC34A"/>
</svg>
