<svg width="49" height="21" viewBox="0 0 49 21" fill="none" xmlns="http://www.w3.org/2000/svg">
<circle cx="24.501" cy="10.5" r="6.5" fill="white"/>
<path d="M40.1066 0.987396C39.5474 0.37622 38.5986 0.334123 37.9874 0.893368C37.3762 1.45261 37.3341 2.40143 37.8934 3.0126L40.1066 0.987396ZM47 10.7429L48.0773 11.7866C48.6294 11.2168 48.6422 10.3156 48.1066 9.73025L47 10.7429ZM37.9227 17.9562C37.3462 18.5512 37.3613 19.5009 37.9562 20.0773C38.5512 20.6538 39.5009 20.6387 40.0773 20.0438L37.9227 17.9562ZM37.8934 3.0126L45.8934 11.7555L48.1066 9.73025L40.1066 0.987396L37.8934 3.0126ZM45.9227 9.6991L37.9227 17.9562L40.0773 20.0438L48.0773 11.7866L45.9227 9.6991Z" fill="white"/>
<path d="M8.89337 0.987396C9.45261 0.37622 10.4014 0.334123 11.0126 0.893368C11.6238 1.45261 11.6659 2.40143 11.1066 3.0126L8.89337 0.987396ZM2 10.7429L0.922698 11.7866C0.370619 11.2168 0.357765 10.3156 0.893369 9.73025L2 10.7429ZM11.0773 17.9562C11.6538 18.5512 11.6387 19.5009 11.0438 20.0773C10.4488 20.6538 9.49915 20.6387 8.9227 20.0438L11.0773 17.9562ZM11.1066 3.0126L3.10663 11.7555L0.893369 9.73025L8.89337 0.987396L11.1066 3.0126ZM3.0773 9.6991L11.0773 17.9562L8.9227 20.0438L0.922698 11.7866L3.0773 9.6991Z" fill="white"/>
</svg>
