<svg width="100" height="100" viewBox="0 0 100 100" fill="none" xmlns="http://www.w3.org/2000/svg">
<path d="M97.0645 56.0566C96.4378 55.4324 95.6476 54.9978 94.7848 54.8029C93.922 54.608 93.0216 54.6608 92.1875 54.9551V53.125C92.1875 53.0801 92.1855 53.0371 92.1836 52.9922C92.1855 52.9727 92.1875 52.9512 92.1875 52.9297V7.03125C92.1859 5.58134 91.6092 4.19127 90.584 3.16603C89.5587 2.14079 88.1687 1.5641 86.7188 1.5625H7.03125C5.58134 1.5641 4.19127 2.14079 3.16603 3.16603C2.14079 4.19127 1.5641 5.58134 1.5625 7.03125V88.2812C1.5641 89.7312 2.14079 91.1212 3.16603 92.1465C4.19127 93.1717 5.58134 93.7484 7.03125 93.75H68.75V96.875C68.75 97.2894 68.9146 97.6868 69.2076 97.9799C69.5007 98.2729 69.8981 98.4375 70.3125 98.4375H93.75C94.1644 98.4375 94.5618 98.2729 94.8549 97.9799C95.1479 97.6868 95.3125 97.2894 95.3125 96.875V89.0625C95.3125 88.6481 95.1479 88.2507 94.8549 87.9576C94.5618 87.6646 94.1644 87.5 93.75 87.5V82.9922L98.2656 74.1484C98.3785 73.9285 98.4374 73.6848 98.4375 73.4375V59.375C98.4388 58.7587 98.3181 58.1482 98.0825 57.5786C97.8469 57.0091 97.5009 56.4919 97.0645 56.0566ZM4.6875 7.03125C4.68802 6.40981 4.93511 5.81397 5.37454 5.37454C5.81397 4.93511 6.40981 4.68802 7.03125 4.6875H86.7188C87.3402 4.68802 87.936 4.93511 88.3755 5.37454C88.8149 5.81397 89.062 6.40981 89.0625 7.03125V10.9375H4.6875V7.03125ZM70.3125 87.5C69.8981 87.5 69.5007 87.6646 69.2076 87.9576C68.9146 88.2507 68.75 88.6481 68.75 89.0625V90.625H7.03125C6.40981 90.6245 5.81397 90.3774 5.37454 89.938C4.93511 89.4985 4.68802 88.9027 4.6875 88.2812V14.0625H89.0625V48.7031C87.9948 48.3286 86.828 48.3508 85.7754 48.7656C85.5047 47.7732 84.9149 46.8973 84.097 46.2733C83.2792 45.6492 82.2787 45.3116 81.25 45.3125C80.7177 45.3117 80.1892 45.4022 79.6875 45.5801V42.1875C79.6875 40.9443 79.1936 39.752 78.3146 38.8729C77.4355 37.9939 76.2432 37.5 75 37.5C73.7568 37.5 72.5645 37.9939 71.6854 38.8729C70.8064 39.752 70.3125 40.9443 70.3125 42.1875V54.9531C69.6053 54.7045 68.8488 54.6289 68.1063 54.7326C67.3639 54.8364 66.6571 55.1164 66.0451 55.5494C65.4332 55.9824 64.9338 56.5557 64.5889 57.2212C64.2439 57.8868 64.0634 58.6253 64.0625 59.375V73.4375C64.0621 73.7512 64.1567 74.0576 64.334 74.3164L70.3125 83.0977V87.5ZM92.1875 95.3125H71.875V90.625H92.1875V95.3125ZM95.3125 73.0625L90.7969 81.9062C90.684 82.1262 90.6251 82.3699 90.625 82.6172V87.5H73.4375V82.6172C73.4379 82.3035 73.3433 81.9971 73.166 81.7383L67.1875 72.957V59.375C67.1875 58.9606 67.3521 58.5632 67.6451 58.2701C67.9382 57.9771 68.3356 57.8125 68.75 57.8125C69.1644 57.8125 69.5618 57.9771 69.8549 58.2701C70.1479 58.5632 70.3125 58.9606 70.3125 59.375V67.1875C70.3125 67.6019 70.4771 67.9993 70.7701 68.2924C71.0632 68.5854 71.4606 68.75 71.875 68.75C72.2894 68.75 72.6868 68.5854 72.9799 68.2924C73.2729 67.9993 73.4375 67.6019 73.4375 67.1875V42.1875C73.4375 41.7731 73.6021 41.3757 73.8951 41.0826C74.1882 40.7896 74.5856 40.625 75 40.625C75.4144 40.625 75.8118 40.7896 76.1049 41.0826C76.3979 41.3757 76.5625 41.7731 76.5625 42.1875V60.9375C76.5625 61.3519 76.7271 61.7493 77.0201 62.0424C77.3132 62.3354 77.7106 62.5 78.125 62.5C78.5394 62.5 78.9368 62.3354 79.2299 62.0424C79.5229 61.7493 79.6875 61.3519 79.6875 60.9375V50C79.6875 49.5856 79.8521 49.1882 80.1451 48.8951C80.4382 48.6021 80.8356 48.4375 81.25 48.4375C81.6644 48.4375 82.0618 48.6021 82.3549 48.8951C82.6479 49.1882 82.8125 49.5856 82.8125 50V60.9375C82.8125 61.3519 82.9771 61.7493 83.2701 62.0424C83.5632 62.3354 83.9606 62.5 84.375 62.5C84.7894 62.5 85.1868 62.3354 85.4799 62.0424C85.7729 61.7493 85.9375 61.3519 85.9375 60.9375V53.125C85.9375 52.7106 86.1021 52.3132 86.3951 52.0201C86.6882 51.7271 87.0856 51.5625 87.5 51.5625C87.9144 51.5625 88.3118 51.7271 88.6049 52.0201C88.8979 52.3132 89.0625 52.7106 89.0625 53.125V60.9375C89.0625 61.3519 89.2271 61.7493 89.5201 62.0424C89.8132 62.3354 90.2106 62.5 90.625 62.5C91.0394 62.5 91.4368 62.3354 91.7299 62.0424C92.0229 61.7493 92.1875 61.3519 92.1875 60.9375V59.375C92.1875 58.9606 92.3521 58.5632 92.6451 58.2701C92.9382 57.9771 93.3356 57.8125 93.75 57.8125C94.1644 57.8125 94.5618 57.9771 94.8549 58.2701C95.1479 58.5632 95.3125 58.9606 95.3125 59.375V73.0625Z" fill="#FF9800"/>
<path d="M7.8125 9.375H9.375C9.7894 9.375 10.1868 9.21038 10.4799 8.91735C10.7729 8.62433 10.9375 8.2269 10.9375 7.8125C10.9375 7.3981 10.7729 7.00067 10.4799 6.70765C10.1868 6.41462 9.7894 6.25 9.375 6.25H7.8125C7.3981 6.25 7.00067 6.41462 6.70765 6.70765C6.41462 7.00067 6.25 7.3981 6.25 7.8125C6.25 8.2269 6.41462 8.62433 6.70765 8.91735C7.00067 9.21038 7.3981 9.375 7.8125 9.375Z" fill="#FF9800"/>
<path d="M14.0625 9.375H15.625C16.0394 9.375 16.4368 9.21038 16.7299 8.91735C17.0229 8.62433 17.1875 8.2269 17.1875 7.8125C17.1875 7.3981 17.0229 7.00067 16.7299 6.70765C16.4368 6.41462 16.0394 6.25 15.625 6.25H14.0625C13.6481 6.25 13.2507 6.41462 12.9576 6.70765C12.6646 7.00067 12.5 7.3981 12.5 7.8125C12.5 8.2269 12.6646 8.62433 12.9576 8.91735C13.2507 9.21038 13.6481 9.375 14.0625 9.375Z" fill="#FF9800"/>
<path d="M20.3125 9.375H21.875C22.2894 9.375 22.6868 9.21038 22.9799 8.91735C23.2729 8.62433 23.4375 8.2269 23.4375 7.8125C23.4375 7.3981 23.2729 7.00067 22.9799 6.70765C22.6868 6.41462 22.2894 6.25 21.875 6.25H20.3125C19.8981 6.25 19.5007 6.41462 19.2076 6.70765C18.9146 7.00067 18.75 7.3981 18.75 7.8125C18.75 8.2269 18.9146 8.62433 19.2076 8.91735C19.5007 9.21038 19.8981 9.375 20.3125 9.375Z" fill="#FF9800"/>
<path d="M37.5 17.1875H9.375C8.9606 17.1875 8.56317 17.3521 8.27015 17.6451C7.97712 17.9382 7.8125 18.3356 7.8125 18.75V46.875C7.8125 47.2894 7.97712 47.6868 8.27015 47.9799C8.56317 48.2729 8.9606 48.4375 9.375 48.4375H37.5C37.9144 48.4375 38.3118 48.2729 38.6049 47.9799C38.8979 47.6868 39.0625 47.2894 39.0625 46.875V18.75C39.0625 18.3356 38.8979 17.9382 38.6049 17.6451C38.3118 17.3521 37.9144 17.1875 37.5 17.1875ZM35.9375 45.3125H10.9375V20.3125H35.9375V45.3125Z" fill="#FF9800"/>
<path d="M15.0896 25.0768C13.6951 26.5188 12.9423 28.4672 13.0035 30.4765C13.1263 33.7559 14.5276 36.8554 16.9051 39.1064C19.169 41.4867 22.2701 42.8831 25.5456 42.9971C27.5382 43.0524 29.4701 42.3053 30.9113 40.9221C32.3055 39.4799 33.0579 37.5316 32.9965 35.5224C32.8735 32.2437 31.473 29.1448 29.0968 26.8934C24.7478 22.5254 18.4661 21.7077 15.0896 25.0768ZM18.2578 37.7411C16.2546 35.8413 15.0599 33.2374 14.9236 30.4736C14.9151 29.715 15.0433 28.961 15.3018 28.2482C16.1402 28.747 17.0803 29.0487 18.0514 29.1304C20.2076 29.2435 21.9318 30.9715 22.0491 33.1368C22.2887 36.1508 24.6746 38.5426 27.6759 38.7776C28.384 38.8252 29.072 39.0346 29.6872 39.3899C29.6392 39.442 29.6037 39.5056 29.5538 39.5558C26.929 42.1746 21.8628 41.3599 18.2617 37.7411H18.2578ZM31.0707 35.5233C31.0794 36.2819 30.9516 37.0359 30.6934 37.7488C29.8547 37.2496 28.9143 36.9479 27.9428 36.8665C25.7885 36.7521 24.0661 35.0256 23.948 32.862C23.7084 29.8484 21.3231 27.4568 18.3221 27.2212C17.6143 27.1733 16.9266 26.9636 16.3118 26.608C16.3598 26.5559 16.3944 26.4932 16.4443 26.4431C17.5257 25.4112 18.9741 24.8582 20.465 24.908C23.2301 25.0356 25.8378 26.2366 27.7383 28.2578C29.7416 30.1573 30.9369 32.7607 31.0745 35.5243L31.0707 35.5233Z" fill="#FF9800" stroke="#FF9800"/>
<path d="M15.0896 59.0768C13.6951 60.5188 12.9423 62.4672 13.0035 64.4765C13.1263 67.7559 14.5276 70.8554 16.9051 73.1064C19.169 75.4867 22.2701 76.8831 25.5456 76.9971C27.5382 77.0524 29.4701 76.3053 30.9113 74.9221C32.3055 73.4799 33.0579 71.5316 32.9965 69.5224C32.8735 66.2437 31.473 63.1448 29.0968 60.8934C24.7478 56.5254 18.4661 55.7077 15.0896 59.0768ZM18.2578 71.7411C16.2546 69.8413 15.0599 67.2374 14.9236 64.4736C14.9151 63.715 15.0433 62.961 15.3018 62.2482C16.1402 62.747 17.0803 63.0487 18.0514 63.1304C20.2076 63.2435 21.9318 64.9715 22.0491 67.1368C22.2887 70.1508 24.6746 72.5426 27.6759 72.7776C28.384 72.8252 29.072 73.0346 29.6872 73.3899C29.6392 73.442 29.6037 73.5056 29.5538 73.5558C26.929 76.1746 21.8628 75.3599 18.2617 71.7411H18.2578ZM31.0707 69.5233C31.0794 70.2819 30.9516 71.0359 30.6934 71.7488C29.8547 71.2496 28.9143 70.9479 27.9428 70.8665C25.7885 70.7521 24.0661 69.0256 23.948 66.862C23.7084 63.8484 21.3231 61.4568 18.3221 61.2212C17.6143 61.1733 16.9266 60.9636 16.3118 60.608C16.3598 60.5559 16.3944 60.4932 16.4443 60.4431C17.5257 59.4112 18.9741 58.8582 20.465 58.908C23.2301 59.0356 25.8378 60.2366 27.7383 62.2578C29.7416 64.1573 30.9369 66.7607 31.0745 69.5243L31.0707 69.5233Z" fill="#FF9800" stroke="#FF9800"/>
<path d="M37.5 51.5625H9.375C8.9606 51.5625 8.56317 51.7271 8.27015 52.0201C7.97712 52.3132 7.8125 52.7106 7.8125 53.125V81.25C7.8125 81.6644 7.97712 82.0618 8.27015 82.3549C8.56317 82.6479 8.9606 82.8125 9.375 82.8125H37.5C37.9144 82.8125 38.3118 82.6479 38.6049 82.3549C38.8979 82.0618 39.0625 81.6644 39.0625 81.25V53.125C39.0625 52.7106 38.8979 52.3132 38.6049 52.0201C38.3118 51.7271 37.9144 51.5625 37.5 51.5625ZM35.9375 79.6875H10.9375V54.6875H35.9375V79.6875Z" fill="#FF9800"/>
<path d="M43.75 20.3125H73.4375C73.8519 20.3125 74.2493 20.1479 74.5424 19.8549C74.8354 19.5618 75 19.1644 75 18.75C75 18.3356 74.8354 17.9382 74.5424 17.6451C74.2493 17.3521 73.8519 17.1875 73.4375 17.1875H43.75C43.3356 17.1875 42.9382 17.3521 42.6451 17.6451C42.3521 17.9382 42.1875 18.3356 42.1875 18.75C42.1875 19.1644 42.3521 19.5618 42.6451 19.8549C42.9382 20.1479 43.3356 20.3125 43.75 20.3125Z" fill="#FF9800"/>
<path d="M43.75 29.6875H73.4375C73.8519 29.6875 74.2493 29.5229 74.5424 29.2299C74.8354 28.9368 75 28.5394 75 28.125C75 27.7106 74.8354 27.3132 74.5424 27.0201C74.2493 26.7271 73.8519 26.5625 73.4375 26.5625H43.75C43.3356 26.5625 42.9382 26.7271 42.6451 27.0201C42.3521 27.3132 42.1875 27.7106 42.1875 28.125C42.1875 28.5394 42.3521 28.9368 42.6451 29.2299C42.9382 29.5229 43.3356 29.6875 43.75 29.6875Z" fill="#FF9800"/>
<path d="M60.9375 31.25H43.75C43.3356 31.25 42.9382 31.4146 42.6451 31.7076C42.3521 32.0007 42.1875 32.3981 42.1875 32.8125C42.1875 33.2269 42.3521 33.6243 42.6451 33.9174C42.9382 34.2104 43.3356 34.375 43.75 34.375H60.9375C61.3519 34.375 61.7493 34.2104 62.0424 33.9174C62.3354 33.6243 62.5 33.2269 62.5 32.8125C62.5 32.3981 62.3354 32.0007 62.0424 31.7076C61.7493 31.4146 61.3519 31.25 60.9375 31.25Z" fill="#FF9800"/>
<path d="M67.1875 31.25H65.625C65.2106 31.25 64.8132 31.4146 64.5201 31.7076C64.2271 32.0007 64.0625 32.3981 64.0625 32.8125C64.0625 33.2269 64.2271 33.6243 64.5201 33.9174C64.8132 34.2104 65.2106 34.375 65.625 34.375H67.1875C67.6019 34.375 67.9993 34.2104 68.2924 33.9174C68.5854 33.6243 68.75 33.2269 68.75 32.8125C68.75 32.3981 68.5854 32.0007 68.2924 31.7076C67.9993 31.4146 67.6019 31.25 67.1875 31.25Z" fill="#FF9800"/>
<path d="M59.375 51.5625H43.75C43.3356 51.5625 42.9382 51.7271 42.6451 52.0201C42.3521 52.3132 42.1875 52.7106 42.1875 53.125C42.1875 53.5394 42.3521 53.9368 42.6451 54.2299C42.9382 54.5229 43.3356 54.6875 43.75 54.6875H59.375C59.7894 54.6875 60.1868 54.5229 60.4799 54.2299C60.7729 53.9368 60.9375 53.5394 60.9375 53.125C60.9375 52.7106 60.7729 52.3132 60.4799 52.0201C60.1868 51.7271 59.7894 51.5625 59.375 51.5625Z" fill="#FF9800"/>
<path d="M59.375 60.9375H43.75C43.3356 60.9375 42.9382 61.1021 42.6451 61.3951C42.3521 61.6882 42.1875 62.0856 42.1875 62.5C42.1875 62.9144 42.3521 63.3118 42.6451 63.6049C42.9382 63.8979 43.3356 64.0625 43.75 64.0625H59.375C59.7894 64.0625 60.1868 63.8979 60.4799 63.6049C60.7729 63.3118 60.9375 62.9144 60.9375 62.5C60.9375 62.0856 60.7729 61.6882 60.4799 61.3951C60.1868 61.1021 59.7894 60.9375 59.375 60.9375Z" fill="#FF9800"/>
<path d="M43.75 68.75H48.4375C48.8519 68.75 49.2493 68.5854 49.5424 68.2924C49.8354 67.9993 50 67.6019 50 67.1875C50 66.7731 49.8354 66.3757 49.5424 66.0826C49.2493 65.7896 48.8519 65.625 48.4375 65.625H43.75C43.3356 65.625 42.9382 65.7896 42.6451 66.0826C42.3521 66.3757 42.1875 66.7731 42.1875 67.1875C42.1875 67.6019 42.3521 67.9993 42.6451 68.2924C42.9382 68.5854 43.3356 68.75 43.75 68.75Z" fill="#FF9800"/>
<path d="M54.6875 65.625H53.125C52.7106 65.625 52.3132 65.7896 52.0201 66.0826C51.7271 66.3757 51.5625 66.7731 51.5625 67.1875C51.5625 67.6019 51.7271 67.9993 52.0201 68.2924C52.3132 68.5854 52.7106 68.75 53.125 68.75H54.6875C55.1019 68.75 55.4993 68.5854 55.7924 68.2924C56.0854 67.9993 56.25 67.6019 56.25 67.1875C56.25 66.7731 56.0854 66.3757 55.7924 66.0826C55.4993 65.7896 55.1019 65.625 54.6875 65.625Z" fill="#FF9800"/>
</svg>
