<svg width="100" height="100" viewBox="0 0 100 100" fill="none" xmlns="http://www.w3.org/2000/svg">
<g clip-path="url(#clip0)">
<path d="M33.541 49.9527C34.1247 49.0196 34.4627 47.9179 34.4627 46.7384V43.9583C34.4627 43.3594 34.3749 42.7658 34.2018 42.1944C33.4197 39.6088 31.0783 37.8708 28.3759 37.8708C25.695 37.8708 23.3596 39.5889 22.5631 42.1471C22.3808 42.7322 22.2885 43.3411 22.2885 43.9583V46.7384C22.2885 47.9507 22.6463 49.0814 23.2604 50.0313C20.3712 51.4832 18.4951 54.4617 18.4951 57.756V62.2726C18.4951 63.3553 19.3733 64.2334 20.4559 64.2334H36.5051C37.5877 64.2334 38.4651 63.3553 38.4651 62.2726V57.756C38.4651 54.4014 36.5211 51.3748 33.541 49.9527ZM26.21 43.9583C26.21 43.737 26.2428 43.5204 26.3069 43.3128C26.5899 42.4034 27.4215 41.7923 28.3759 41.7923C29.3228 41.7923 30.1757 42.424 30.4489 43.3296C30.4489 43.3296 30.4489 43.3296 30.4496 43.3304C30.5107 43.5333 30.5419 43.7447 30.5419 43.9583V46.7384C30.5419 47.9332 29.5699 48.9044 28.3759 48.9044C27.1812 48.9044 26.21 47.9332 26.21 46.7384V43.9583ZM34.5443 60.3127H22.4159V57.7568C22.4159 55.7487 23.6892 53.9551 25.5851 53.2936C26.3893 53.0128 27.2231 52.8587 28.0631 52.8336C28.2775 52.8275 28.4828 52.8252 28.6704 52.8252C29.5799 52.8275 30.4893 52.9846 31.3758 53.2936C33.271 53.9551 34.5443 55.7487 34.5443 57.7568V60.3127Z" fill="#FF9800"/>
<path d="M98.0392 14.2579H49.7047C48.6221 14.2579 47.7447 15.1353 47.7447 16.2186V22.8531H5.31539C4.23278 22.8531 3.35464 23.7305 3.35464 24.8131V51.6274C3.35464 52.71 4.23278 53.5874 5.31539 53.5874C6.398 53.5874 7.27539 52.71 7.27539 51.6274V26.7739H47.7447V29.4411H11.5021C10.4195 29.4411 9.54208 30.3185 9.54208 31.4011V70.7032C9.54208 71.7858 10.4195 72.6639 11.5021 72.6639H75.4753C76.5579 72.6639 77.4353 71.7858 77.4353 70.7032V47.9233H79.702V75.3304H7.27539V66.919C7.27539 65.8364 6.398 64.9583 5.31539 64.9583C4.23278 64.9583 3.35464 65.8364 3.35464 66.919V75.3304H1.96075C1.165 75.3304 0.448603 75.8111 0.146479 76.5465C-0.154882 77.282 0.0175421 78.1273 0.58288 78.6858L7.3143 85.3303C7.68127 85.6927 8.17565 85.8956 8.6914 85.8956H78.286C78.8032 85.8956 79.2992 85.6919 79.6661 85.328L86.3708 78.6835C86.9354 78.1243 87.1063 77.2797 86.8034 76.545C86.5013 75.8103 85.7857 75.3304 84.9907 75.3304H83.6227V47.9233H98.0392C99.1218 47.9233 100 47.046 100 45.9626V16.2186C100 15.1353 99.1226 14.2579 98.0392 14.2579V14.2579ZM73.5145 68.7424H13.4628V33.3619H47.7447V45.9626C47.7447 47.0452 48.6221 47.9233 49.7047 47.9233H58.1665L64.4318 54.4343C64.8018 54.8188 65.3122 55.0355 65.8447 55.0355C65.8615 55.0355 65.8783 55.0355 65.8951 55.0347C66.4459 55.021 66.9647 54.7753 67.3256 54.3595L72.908 47.9226H73.5145V68.7424ZM77.4795 81.9749H9.4963L6.73751 79.2512H80.2277L77.4795 81.9749ZM96.0792 44.0018H72.0131C71.4455 44.0018 70.9045 44.249 70.5322 44.6778L65.7692 50.1694L60.4134 44.603C60.0433 44.2193 59.5337 44.0018 59.0004 44.0018H51.6655V18.1786H96.0792V44.0018Z" fill="#FF9800"/>
<path d="M59.3704 25.6295H86.499C87.5816 25.6295 88.4598 24.7521 88.4598 23.6695C88.4598 22.5861 87.5816 21.7087 86.499 21.7087H59.3704C58.2878 21.7087 57.4097 22.5861 57.4097 23.6695C57.4097 24.7521 58.2878 25.6295 59.3704 25.6295Z" fill="#FF9800"/>
<path d="M59.3704 32.8178H76.3977C77.4803 32.8178 78.3585 31.9405 78.3585 30.8578C78.3585 29.7745 77.4803 28.8971 76.3977 28.8971H59.3704C58.2878 28.8971 57.4097 29.7745 57.4097 30.8578C57.4097 31.9405 58.2878 32.8178 59.3704 32.8178Z" fill="#FF9800"/>
<path d="M59.3704 39.7232H86.499C87.5816 39.7232 88.4598 38.8459 88.4598 37.7625C88.4598 36.6799 87.5816 35.8025 86.499 35.8025H59.3704C58.2878 35.8025 57.4097 36.6799 57.4097 37.7625C57.4097 38.8459 58.2878 39.7232 59.3704 39.7232Z" fill="#FF9800"/>
<path d="M80.7266 30.0789L80.6899 30.1689C80.2833 31.173 80.767 32.3158 81.771 32.7225C82.0121 32.8202 82.2608 32.8659 82.5057 32.8659C83.2809 32.8659 84.0148 32.4036 84.3238 31.6414L84.3604 31.5514C84.7671 30.5474 84.2826 29.4045 83.2794 28.9978C82.2753 28.5919 81.1332 29.0756 80.7266 30.0789Z" fill="#FF9800"/>
<path d="M4.57321 61.0671C4.81582 61.1663 5.06607 61.2129 5.31326 61.2129C6.08612 61.2129 6.82007 60.752 7.13058 59.9922C7.54104 58.9904 7.06115 57.8452 6.05865 57.4355C5.05615 57.0258 3.91174 57.5057 3.50128 58.5075L3.49975 58.5121C3.09005 59.5138 3.57071 60.6567 4.57321 61.0671Z" fill="#FF9800"/>
<path d="M67.1789 60.2997H43.4751C42.3925 60.2997 41.5151 61.1778 41.5151 62.2604C41.5151 63.343 42.3925 64.2204 43.4751 64.2204H67.1789C68.2615 64.2204 69.1396 63.343 69.1396 62.2604C69.1396 61.1778 68.2615 60.2997 67.1789 60.2997Z" fill="#FF9800"/>
<path d="M43.4751 56.9595H50.971C52.0536 56.9595 52.9318 56.0814 52.9318 54.9988C52.9318 53.9162 52.0536 53.038 50.971 53.038H43.4751C42.3925 53.038 41.5151 53.9162 41.5151 54.9988C41.5151 56.0814 42.3925 56.9595 43.4751 56.9595Z" fill="#FF9800"/>
</g>
<defs>
<clipPath id="clip0">
<rect width="100" height="100" fill="white"/>
</clipPath>
</defs>
</svg>
