<svg width="100" height="100" viewBox="0 0 100 100" fill="none" xmlns="http://www.w3.org/2000/svg">
<path d="M87.5041 88.2812H53.1266C52.048 88.2812 51.1734 89.1559 51.1734 90.2344C51.1734 91.3129 52.048 92.1875 53.1266 92.1875H85.2162C84.4102 94.4611 82.2379 96.0938 79.6916 96.0938H17.5729C18.4277 94.9576 19.0408 93.6301 19.3348 92.1875H37.0135C38.092 92.1875 38.9666 91.3129 38.9666 90.2344C38.9666 89.1559 38.092 88.2812 37.0135 88.2812H17.5781C16.4996 88.2812 15.625 89.1559 15.625 90.2344C15.625 93.4652 12.9965 96.0938 9.76563 96.0938C6.53477 96.0938 3.90625 93.4652 3.90625 90.2344V3.90625H75.0014V28.0273C75.0014 29.1059 75.876 29.9805 76.9545 29.9805C78.033 29.9805 78.9076 29.1059 78.9076 28.0273V1.95312C78.9076 0.874609 78.033 0 76.9545 0H1.95313C0.874609 0 0 0.874609 0 1.95312V90.2344C0 95.6191 4.38086 100 9.76563 100H79.6916C85.0764 100 89.4572 95.6191 89.4572 90.2344C89.4572 89.1557 88.5826 88.2812 87.5041 88.2812Z" fill="#FF9800"/>
<path d="M45.9961 88.8527C45.6328 88.4894 45.1289 88.2804 44.6152 88.2804C44.1016 88.2804 43.5979 88.4894 43.2344 88.8527C42.8713 89.2179 42.6621 89.7197 42.6621 90.2335C42.6621 90.7472 42.8711 91.2511 43.2344 91.6142C43.5977 91.9775 44.1016 92.1866 44.6152 92.1866C45.1289 92.1866 45.6328 91.9777 45.9961 91.6142C46.3592 91.2511 46.5684 90.7472 46.5684 90.2335C46.5684 89.7197 46.3594 89.2179 45.9961 88.8527Z" fill="#FF9800"/>
<path d="M55.5691 54.6037H23.3384C22.2599 54.6037 21.3853 55.4783 21.3853 56.5568C21.3853 57.6353 22.2599 58.5099 23.3384 58.5099H55.5691C56.6476 58.5099 57.5222 57.6353 57.5222 56.5568C57.5222 55.4783 56.6476 54.6037 55.5691 54.6037Z" fill="#FF9800"/>
<path d="M55.5691 63.9787H23.3384C22.2599 63.9787 21.3853 64.8533 21.3853 65.9318C21.3853 67.0103 22.2599 67.8849 23.3384 67.8849H55.5691C56.6476 67.8849 57.5222 67.0103 57.5222 65.9318C57.5222 64.8533 56.6476 63.9787 55.5691 63.9787Z" fill="#FF9800"/>
<path d="M56.9492 73.9252C56.5859 73.5618 56.0838 73.3528 55.5684 73.3528C55.0547 73.3528 54.5508 73.5618 54.1875 73.9252C53.8244 74.2903 53.6152 74.7922 53.6152 75.3059C53.6152 75.8217 53.8242 76.3235 54.1875 76.6868C54.5508 77.052 55.0547 77.259 55.5684 77.259C56.084 77.259 56.5859 77.052 56.9492 76.6868C57.3123 76.3254 57.5215 75.8215 57.5215 75.3059C57.5215 74.7922 57.3125 74.2883 56.9492 73.9252Z" fill="#FF9800"/>
<path d="M46.8927 73.3537H23.3384C22.2599 73.3537 21.3853 74.2283 21.3853 75.3068C21.3853 76.3853 22.2599 77.2599 23.3384 77.2599H46.8927C47.9712 77.2599 48.8458 76.3853 48.8458 75.3068C48.8458 74.2283 47.9712 73.3537 46.8927 73.3537Z" fill="#FF9800"/>
<path d="M55.2197 31.25C55.3076 31.1336 55.3978 31.0172 55.4822 30.9006C58.2363 27.0973 58.9113 23.5449 57.3834 20.8984C55.8558 18.252 52.4433 17.0613 47.7707 17.5437C47.632 17.558 47.4908 17.5775 47.3507 17.5947C45.4843 13.2268 42.6875 10.5469 39.4541 10.5469C36.2207 10.5469 33.4238 13.2268 31.5574 17.5947C31.4171 17.5775 31.2759 17.558 31.1373 17.5437C26.4667 17.0605 23.0523 18.252 21.5246 20.8984C19.9093 23.6959 20.8283 27.4535 23.6714 31.25C20.8283 35.0465 19.9095 38.8041 21.5246 41.6016C22.864 43.9219 25.6466 45.0629 29.2445 45.0629C29.9835 45.0629 30.7591 45.0111 31.5615 44.915C33.4277 49.2773 36.223 51.9531 39.4541 51.9531C42.6851 51.9531 45.4802 49.2773 47.3466 44.915C48.1488 45.0109 48.9244 45.0629 49.6634 45.0629C53.2605 45.0629 56.0441 43.9217 57.3834 41.6016C58.9113 38.9549 58.2361 35.4029 55.4822 31.5994C55.3978 31.4828 55.3076 31.3664 55.2197 31.25ZM24.9074 22.8516C25.4697 21.8779 27.0167 21.3443 29.1677 21.3443C29.5236 21.3443 29.8964 21.3596 30.2835 21.3891C29.9513 22.676 29.6839 24.0498 29.4896 25.4969C28.3324 26.3895 27.2753 27.309 26.3263 28.241C24.7439 25.9125 24.2818 23.9354 24.9074 22.8516ZM29.1183 31.5186C29.0267 31.4291 28.9333 31.3393 28.8449 31.25C28.9335 31.1607 29.0269 31.0709 29.1183 30.9814C29.1177 31.0709 29.1167 31.1602 29.1167 31.25C29.1167 31.3398 29.1179 31.4291 29.1183 31.5186ZM24.9074 39.6484C24.2818 38.5648 24.7439 36.5875 26.3263 34.259C27.2753 35.191 28.3324 36.1105 29.4896 37.0031C29.6841 38.4516 29.9517 39.8268 30.2845 41.1146C27.4765 41.3207 25.5332 40.7324 24.9074 39.6484ZM44.7611 22.0721C44.7933 22.191 44.8238 22.3139 44.8548 22.4354C44.7771 22.3898 44.7007 22.343 44.6224 22.2979C44.5478 22.2549 44.4728 22.2143 44.3982 22.1717C44.5195 22.1379 44.6406 22.1041 44.7611 22.0721ZM39.4541 14.4531C40.708 14.4531 42.1931 15.8475 43.4201 18.3926C42.1214 18.7525 40.7927 19.207 39.4539 19.7543C38.115 19.207 36.7865 18.7525 35.4878 18.3926C36.715 15.8475 38.2 14.4531 39.4541 14.4531ZM34.147 22.0721C34.2673 22.1039 34.3884 22.1377 34.5097 22.1715C34.4351 22.2141 34.3599 22.2547 34.2855 22.2977C34.2078 22.3426 34.131 22.3881 34.0539 22.4332C34.0845 22.3127 34.1148 22.1904 34.147 22.0721ZM34.1494 40.4379C34.1164 40.3166 34.0853 40.1908 34.0537 40.0668C34.131 40.1119 34.2076 40.1574 34.2853 40.2023C34.364 40.2479 34.4425 40.2898 34.5212 40.3346C34.397 40.3693 34.2718 40.4055 34.1494 40.4379ZM39.4541 48.0469C38.2029 48.0469 36.7216 46.6584 35.4962 44.1238C36.7777 43.768 38.1025 43.3119 39.4539 42.7563C40.8054 43.3121 42.1302 43.7684 43.4117 44.124C42.1863 46.6584 40.7052 48.0469 39.4541 48.0469ZM44.7585 40.4377C44.6361 40.4053 44.5109 40.3691 44.3869 40.3344C44.4654 40.2896 44.5439 40.2477 44.6226 40.2023C44.7007 40.1572 44.7771 40.1104 44.8548 40.0648C44.8228 40.1895 44.7918 40.3158 44.7585 40.4377ZM45.7263 34.8654C44.7603 35.5473 43.7386 36.2022 42.6695 36.8195C41.5709 37.4537 40.4968 38.0086 39.4541 38.4922C38.4113 38.0086 37.3371 37.4537 36.2384 36.8195C35.1398 36.1854 34.1222 35.5326 33.1822 34.8713C33.0796 33.7264 33.0232 32.5186 33.0232 31.2502C33.0232 29.9818 33.0796 28.7738 33.1822 27.6291C34.1224 26.9678 35.14 26.315 36.2384 25.6809C37.3058 25.0646 38.3822 24.508 39.4539 24.0129C40.5255 24.508 41.6019 25.0646 42.6693 25.6809C43.7384 26.2982 44.7603 26.9531 45.7263 27.635C45.8287 28.7781 45.8849 29.9838 45.8849 31.2502C45.8849 32.5166 45.8285 33.7223 45.7263 34.8654ZM54.0003 39.6484C53.3748 40.732 51.4316 41.3203 48.6236 41.1143C48.9572 39.8225 49.2255 38.4428 49.4201 36.9895C50.558 36.1072 51.6109 35.1879 52.5679 34.2475C54.1197 36.5105 54.657 38.5113 54.0003 39.6484ZM49.7898 30.9941C49.8769 31.0793 49.964 31.1645 50.049 31.25C49.964 31.3355 49.8769 31.4207 49.7898 31.5059C49.7902 31.4205 49.7914 31.3355 49.7914 31.25C49.7914 31.1645 49.7902 31.0795 49.7898 30.9941ZM52.5683 28.2527C51.6113 27.3123 50.5584 26.3928 49.4205 25.5105C49.2259 24.0584 48.958 22.6799 48.6248 21.3891C49.0115 21.3596 49.3843 21.3445 49.7402 21.3445C51.8908 21.3445 53.4384 21.8779 54.0005 22.8518C54.657 23.9889 54.1197 25.9895 52.5683 28.2527Z" fill="#FF9800"/>
<path d="M82.7148 32.9695C73.1838 32.9695 65.4297 40.7236 65.4297 50.2547C65.4297 55.8182 68.0725 60.7754 72.168 63.9393V82.0184C72.168 82.8059 72.641 83.5164 73.3676 83.8203C74.0945 84.1242 74.9322 83.9621 75.493 83.4088L82.715 76.2838L89.9371 83.4088C90.31 83.7768 90.8055 83.9717 91.3092 83.9717C91.5631 83.9717 91.8189 83.9223 92.0623 83.8205C92.7889 83.5166 93.2619 82.8063 93.2619 82.0186V63.9395C97.3572 60.7754 100 55.8184 100 50.2547C100 40.7236 92.2459 32.9695 82.7148 32.9695ZM89.3555 77.3477L84.0865 72.1496C83.3258 71.3992 82.1037 71.3992 81.343 72.1496L76.0742 77.3477V66.2125C78.1199 67.067 80.3631 67.5399 82.7148 67.5399C85.0666 67.5399 87.3098 67.067 89.3555 66.2125V77.3477ZM82.7148 63.6336C75.3377 63.6336 69.3359 57.632 69.3359 50.2547C69.3359 42.8775 75.3377 36.8758 82.7148 36.8758C90.092 36.8758 96.0938 42.8775 96.0938 50.2547C96.0938 57.6318 90.092 63.6336 82.7148 63.6336Z" fill="#FF9800"/>
<path d="M92.8262 47.7942C92.5963 47.0872 91.9848 46.5722 91.2493 46.4653L86.562 45.7856L84.4647 41.539C84.1356 40.8727 83.4569 40.4509 82.7135 40.4509C82.7133 40.4509 82.7131 40.4509 82.7129 40.4509C81.9694 40.4511 81.2907 40.8733 80.9618 41.5401L78.8668 45.7876L74.1801 46.47C73.4444 46.577 72.8332 47.0927 72.6038 47.7997C72.3743 48.5069 72.5661 49.2831 73.0985 49.8018L76.4909 53.1069L75.6916 57.7751C75.5661 58.5077 75.8674 59.2483 76.469 59.685C76.8092 59.9321 77.212 60.0577 77.6168 60.0577C77.928 60.0577 78.2401 59.9835 78.5258 59.8333L82.7176 57.6282L86.9102 59.8309C87.5686 60.1768 88.3659 60.119 88.967 59.6817C89.5684 59.2446 89.8694 58.504 89.7436 57.7712L88.942 53.1034L92.3327 49.7966C92.8649 49.2774 93.0561 48.5013 92.8262 47.7942ZM85.4793 51.0237C85.0194 51.4725 84.8092 52.119 84.9182 52.7526L85.2237 54.5323L83.6254 53.6925C83.0565 53.3938 82.3766 53.394 81.8077 53.6929L80.2094 54.5337L80.5143 52.754C80.6229 52.1206 80.4125 51.4739 79.9522 51.0253L78.6588 49.7653L80.4459 49.5052C81.0821 49.4126 81.6319 49.0128 81.9163 48.4362L82.7149 46.8171L83.5145 48.436C83.7991 49.0122 84.3491 49.4116 84.9852 49.504L86.7719 49.7632L85.4793 51.0237Z" fill="#FF9800"/>
</svg>
