<svg width="100" height="100" viewBox="0 0 100 100" fill="none" xmlns="http://www.w3.org/2000/svg">
<g clip-path="url(#clip0)">
<path d="M93.3594 20.7954H89.4493L89.4531 13.8054C89.4554 9.11255 85.64 5.29251 80.9464 5.29022L51.2711 5.27344C51.2695 5.27344 51.2688 5.27344 51.2672 5.27344C49.5781 5.27344 47.9897 5.93109 46.7949 7.12585L2.49252 51.4282C0.88501 53.0357 0 55.1727 0 57.4463C0 59.7198 0.88501 61.8568 2.49252 63.4644L31.2431 92.215C32.9025 93.8744 35.0822 94.7037 37.2612 94.7037C39.4409 94.7037 41.6206 93.8744 43.28 92.215L71.1731 64.3219C71.936 63.559 71.936 62.3222 71.1731 61.5601C70.4102 60.7971 69.1734 60.7971 68.4105 61.5601L40.5174 89.4531C38.7222 91.2483 35.8009 91.2483 34.0057 89.4531L5.25513 60.7025C4.38538 59.8328 3.90625 58.6761 3.90625 57.4463C3.90625 56.2164 4.38538 55.0598 5.25513 54.1901L49.5567 9.88846C50.0137 9.43146 50.621 9.17969 51.2672 9.17969H51.2688L80.9441 9.19647C83.4831 9.19724 85.5484 11.2648 85.5469 13.8039L85.5377 30.1704H76.7403C75.9827 30.1704 75.2968 29.8607 74.8009 29.3617C75.618 29.0115 76.384 28.5057 77.05 27.8397C79.8569 25.032 79.8569 20.4651 77.05 17.6582C74.2424 14.8506 69.6754 14.8506 66.8678 17.6582C64.061 20.4651 64.061 25.032 66.8678 27.8397C67.9085 28.8803 69.1917 29.5341 70.5368 29.8035C71.4928 32.299 73.912 34.0767 76.7403 34.0767H85.5354L85.5301 43.4395C85.5301 44.0857 85.2783 44.6922 84.8213 45.1485L79.4594 50.5112C78.6964 51.2741 78.6964 52.5108 79.4594 53.2738C80.2216 54.0359 81.4583 54.0359 82.2212 53.2738L87.5839 47.9111C88.7772 46.7171 89.4356 45.1302 89.4363 43.4418L89.4417 34.0767H93.3594C97.0207 34.0767 100 31.0982 100 27.4361C100 23.7747 97.0207 20.7954 93.3594 20.7954ZM69.6304 20.4201C70.2728 19.7777 71.1159 19.4572 71.9597 19.4572C72.8027 19.4572 73.6458 19.7784 74.2882 20.4201C74.4911 20.6238 74.659 20.8488 74.7978 21.0861C72.654 21.743 70.9694 23.4589 70.3537 25.621C70.0951 25.4768 69.8502 25.2975 69.6304 25.0778C68.3464 23.793 68.3464 21.7041 69.6304 20.4201ZM93.3594 30.1704H89.444L89.447 24.7017H93.3594C94.8669 24.7017 96.0938 25.9285 96.0938 27.4361C96.0938 28.9436 94.8669 30.1704 93.3594 30.1704Z" fill="#FF9800"/>
<path d="M31.5261 54.5518C31.7664 55.4162 32.5515 55.9816 33.406 55.9816C33.5799 55.9816 33.7562 55.9587 33.9309 55.9098L53.9809 50.3289C55.02 50.0398 55.6281 48.9625 55.3389 47.9234C55.0498 46.885 53.9733 46.277 52.9334 46.5661L32.8833 52.1463C31.845 52.4362 31.2369 53.5127 31.5261 54.5518Z" fill="#FF9800"/>
<path d="M40.3519 57.1289C39.2639 58.2168 38.665 59.6626 38.665 61.2015C38.665 62.7395 39.2639 64.1853 40.3519 65.2733C41.4749 66.3955 42.9489 66.9571 44.4237 66.9571C45.8985 66.9571 47.3732 66.3955 48.4963 65.2733C50.7416 63.0279 50.7416 59.3742 48.4963 57.1289C46.2509 54.8836 42.5972 54.8836 40.3519 57.1289ZM45.7337 62.5107C45.0112 63.2332 43.8362 63.2332 43.1137 62.5107C42.7635 62.1612 42.5713 61.6958 42.5713 61.2007C42.5713 60.7063 42.7643 60.2409 43.1137 59.8907C43.4754 59.5299 43.9499 59.349 44.4237 59.349C44.8983 59.349 45.3728 59.5299 45.7337 59.8907C46.4562 60.6132 46.4562 61.7889 45.7337 62.5107Z" fill="#FF9800"/>
<path d="M49.4636 45.5002C51.709 43.2541 51.709 39.6011 49.4636 37.3558C48.3757 36.2679 46.9291 35.6689 45.3911 35.6689C43.853 35.6689 42.4064 36.2679 41.3193 37.3558C39.0739 39.6011 39.0739 43.2541 41.3193 45.5002C42.4423 46.6225 43.9163 47.184 45.3911 47.184C46.8658 47.184 48.3406 46.6225 49.4636 45.5002ZM44.0811 40.1176C44.4313 39.7675 44.8967 39.5752 45.3911 39.5752C45.8862 39.5752 46.3516 39.7675 46.701 40.1176C47.4235 40.8401 47.4235 42.0151 46.701 42.7376C45.9793 43.4601 44.8036 43.4601 44.0811 42.7376C43.3594 42.0151 43.3594 40.8401 44.0811 40.1176Z" fill="#FF9800"/>
<path d="M19.4259 50.5158C18.663 49.7528 17.4263 49.7528 16.6633 50.5158L11.1137 56.0654C10.7475 56.4316 10.5415 56.9283 10.5415 57.4463C10.5415 57.9644 10.7475 58.461 11.1137 58.8272L35.881 83.5945C36.2617 83.9753 36.7622 84.166 37.2619 84.166C37.7617 84.166 38.2614 83.9753 38.6429 83.5945L75.6729 46.5638C76.4358 45.8008 76.4358 44.5641 75.6729 43.8011L50.9063 19.0346C50.5401 18.6684 50.0435 18.4624 49.5254 18.4624C49.0074 18.4624 48.5107 18.6684 48.1445 19.0346L27.7122 39.4669C26.9493 40.2298 26.9493 41.4666 27.7122 42.2295C28.4744 42.9917 29.7111 42.9917 30.4741 42.2295L49.5254 23.1781L71.5301 45.1828L37.2619 79.451L15.2572 57.4463L19.4259 53.2776C20.1881 52.5147 20.1889 51.2787 19.4259 50.5158Z" fill="#FF9800"/>
<path d="M75.3164 55.4634C74.8022 55.4634 74.2986 55.6724 73.9355 56.0356C73.5723 56.3987 73.3633 56.903 73.3633 57.4165C73.3633 57.93 73.5723 58.4343 73.9355 58.7974C74.2986 59.1606 74.8022 59.3696 75.3164 59.3696C75.8299 59.3696 76.3334 59.1606 76.6973 58.7974C77.0605 58.4343 77.2695 57.93 77.2695 57.4165C77.2695 56.903 77.0605 56.3987 76.6973 56.0356C76.3334 55.6724 75.8299 55.4634 75.3164 55.4634Z" fill="#FF9800"/>
<path d="M24.949 47.7524C25.3145 47.3892 25.522 46.8872 25.522 46.3715C25.522 45.858 25.3145 45.356 24.949 44.9905C24.5858 44.6274 24.0838 44.4183 23.5688 44.4183C23.0546 44.4183 22.5511 44.6274 22.1879 44.9905C21.824 45.3537 21.6157 45.858 21.6157 46.3715C21.6157 46.8872 21.824 47.3892 22.1879 47.7524C22.5526 48.1178 23.0546 48.3246 23.5688 48.3246C24.0838 48.3246 24.5858 48.1178 24.949 47.7524Z" fill="#FF9800"/>
</g>
<defs>
<clipPath id="clip0">
<rect width="100" height="100" fill="white"/>
</clipPath>
</defs>
</svg>
